<?xml version="1.0" standalone="no"?>
<!DOCTYPE svg PUBLIC "-//W3C//DTD SVG 20010904//EN"
 "http://www.w3.org/TR/2001/REC-SVG-20010904/DTD/svg10.dtd">
<svg version="1.0" xmlns="http://www.w3.org/2000/svg"
 width="2000.000000pt" height="2000.000000pt" viewBox="0 0 2000.000000 2000.000000"
 preserveAspectRatio="xMidYMid meet">
<metadata>
Created by potrace 1.11, written by Peter Selinger 2001-2013
</metadata>
<g transform="translate(0.000000,2000.000000) scale(0.100000,-0.100000)"
fill="#000000" stroke="none">
<path d="M9767 18424 c-1 -1 -67 -5 -147 -9 -197 -10 -332 -21 -383 -31 -12
-2 -47 -7 -77 -10 -30 -3 -66 -7 -80 -9 -14 -3 -43 -7 -65 -10 -521 -76 -1194
-281 -1710 -520 -607 -281 -1150 -635 -1564 -1020 -326 -303 -537 -560 -823
-1005 -99 -153 -249 -443 -341 -660 -141 -331 -265 -795 -302 -1125 -3 -27 -7
-66 -10 -85 -16 -129 -26 -316 -26 -520 0 -194 10 -401 26 -510 3 -19 7 -57
10 -85 6 -55 31 -225 40 -265 2 -14 12 -61 21 -104 88 -435 271 -902 503
-1284 31 -51 61 -100 66 -110 13 -22 96 -144 138 -203 41 -58 187 -244 222
-284 14 -16 45 -52 68 -79 43 -50 47 -54 132 -147 165 -182 219 -243 369 -417
395 -461 632 -787 838 -1152 14 -25 43 -76 65 -115 200 -352 334 -647 413
-907 17 -57 33 -110 35 -118 45 -191 61 -278 70 -380 l5 -65 -69 -44 c-106
-67 -249 -211 -302 -304 -58 -99 -111 -229 -124 -297 -5 -26 -15 -93 -21 -130
-11 -80 -5 -253 11 -340 33 -172 103 -315 229 -474 l28 -36 -28 -37 c-15 -21
-33 -42 -40 -48 -36 -31 -121 -196 -159 -310 -85 -250 -52 -606 78 -835 77
-137 227 -296 344 -367 30 -18 31 -21 19 -44 -58 -113 -107 -259 -122 -364
-15 -104 -5 -334 16 -391 5 -13 8 -24 5 -24 -6 0 25 -100 51 -163 85 -201 258
-376 484 -488 186 -91 345 -131 583 -143 37 -2 69 -5 71 -7 1 -2 22 -42 45
-89 127 -249 318 -470 558 -643 85 -62 268 -163 356 -197 45 -17 91 -36 102
-40 33 -15 179 -54 245 -67 138 -26 405 -36 539 -19 267 34 541 134 767 282
76 50 65 42 169 128 189 156 340 343 449 556 21 41 43 79 47 84 5 6 31 11 58
12 76 2 192 14 236 24 22 5 54 11 71 14 17 3 67 18 110 32 337 113 584 334
678 606 48 140 61 224 60 393 0 176 -33 315 -110 466 -14 28 -24 54 -22 59 2
4 40 35 84 69 235 176 371 417 403 714 32 294 -47 563 -232 790 l-39 47 39 48
c74 89 158 232 175 299 3 10 6 21 7 25 1 4 8 25 15 45 50 143 53 385 6 588
-51 222 -214 444 -433 588 -58 39 -58 39 -52 80 3 23 8 58 11 77 2 20 6 45 8
55 2 11 7 42 10 69 4 27 9 52 11 55 1 3 6 22 9 41 21 136 150 494 257 718 87
181 324 613 341 620 4 2 8 7 8 12 0 21 198 323 318 485 174 234 507 633 753
900 20 22 59 65 87 95 249 271 464 557 627 835 63 107 199 376 235 465 12 30
29 70 37 89 28 63 113 315 143 422 31 114 85 347 94 414 4 23 9 52 11 65 3 14
8 45 11 70 3 25 7 52 9 60 2 8 7 53 11 100 3 47 8 88 10 91 7 12 17 270 17
434 1 150 -8 363 -17 450 -2 17 -7 59 -10 95 -4 36 -11 90 -16 120 -5 30 -12
73 -15 95 -11 79 -56 292 -81 385 -14 52 -27 104 -30 114 -14 69 -136 408
-185 513 -10 24 -19 46 -19 49 0 19 -190 380 -270 514 -113 189 -288 446 -345
506 -5 6 -21 26 -35 44 -181 242 -583 635 -834 815 -16 11 -49 36 -75 56 -119
92 -546 369 -569 369 -6 0 -12 4 -14 8 -2 5 -66 42 -143 84 -190 102 -414 210
-600 288 -31 14 -161 65 -260 103 -93 36 -356 126 -388 132 -10 2 -55 15 -100
29 -112 34 -336 89 -487 120 -147 29 -265 50 -345 60 -22 3 -58 8 -80 10 -22
3 -56 8 -75 10 -19 3 -66 8 -105 12 -38 3 -83 8 -100 9 -120 13 -687 28 -698
19z m523 -1438 c171 -16 252 -25 365 -42 80 -11 270 -46 320 -58 6 -2 24 -6
40 -10 102 -25 150 -37 235 -61 108 -30 110 -30 130 -38 8 -3 69 -24 135 -46
144 -48 200 -68 240 -85 17 -8 91 -39 165 -71 246 -104 597 -294 821 -445 249
-168 506 -394 697 -612 45 -53 180 -226 208 -268 13 -19 36 -53 51 -75 62 -87
177 -290 242 -426 80 -167 125 -286 174 -454 49 -168 73 -280 101 -485 20
-139 26 -462 13 -638 -33 -433 -167 -866 -384 -1242 -104 -180 -281 -424 -403
-555 -26 -27 -82 -88 -126 -135 -43 -47 -102 -110 -130 -140 -28 -30 -72 -77
-97 -105 -25 -27 -60 -66 -78 -86 -72 -76 -209 -225 -234 -254 -58 -67 -307
-388 -395 -510 -114 -157 -310 -451 -310 -464 0 -5 -4 -11 -8 -13 -4 -1 -40
-57 -79 -123 -236 -400 -409 -773 -538 -1160 -59 -176 -145 -497 -158 -590 -4
-22 -13 -76 -21 -120 -15 -82 -19 -113 -32 -225 -4 -36 -8 -72 -9 -80 -2 -13
-151 -15 -1273 -15 -841 0 -1272 3 -1273 10 0 5 -2 19 -4 30 -1 11 -6 47 -9
80 -7 70 -10 91 -37 245 -55 321 -177 733 -304 1025 -8 17 -32 73 -55 125 -94
216 -313 626 -436 815 -21 33 -41 65 -44 70 -3 6 -28 43 -55 84 -28 40 -55 81
-60 90 -17 27 -49 75 -58 86 -4 6 -30 42 -57 80 -27 39 -53 75 -57 80 -5 6
-44 57 -88 115 -99 132 -266 341 -319 400 -23 25 -90 98 -150 163 -60 65 -117
126 -125 136 -9 10 -62 67 -118 127 -56 60 -111 120 -123 134 -12 14 -47 52
-78 85 -203 214 -388 478 -525 751 -169 336 -270 705 -303 1107 -11 134 -3
563 11 587 2 3 6 34 10 70 4 36 9 74 11 85 2 11 9 47 15 80 61 344 228 761
432 1079 151 237 294 415 481 601 223 222 418 372 731 563 210 127 497 272
710 357 39 15 84 33 100 40 17 7 93 36 170 63 118 42 172 60 240 78 6 2 53 15
105 30 158 44 348 86 503 110 56 8 113 17 127 20 14 2 54 6 90 9 36 3 76 8 90
10 14 3 77 8 140 11 63 4 116 8 118 9 5 4 471 -3 532 -9z"/>
<path d="M9840 15194 c-252 -92 -326 -396 -141 -583 48 -49 101 -85 136 -91 6
-2 20 -6 31 -11 12 -4 84 -10 160 -14 164 -7 228 -14 359 -36 287 -49 660
-181 890 -314 59 -34 177 -121 220 -161 142 -134 228 -321 240 -519 3 -49 8
-103 11 -120 19 -90 105 -195 200 -241 52 -25 70 -29 149 -29 78 0 98 4 145
27 71 35 143 107 178 178 26 52 27 63 27 195 -1 291 -89 545 -274 795 -62 83
-214 240 -306 316 -33 27 -62 51 -65 54 -41 43 -278 193 -415 262 -246 125
-710 255 -1015 284 -30 3 -68 7 -85 10 -16 3 -113 7 -215 10 -155 4 -192 2
-230 -12z"/>
</g>
</svg>
