<?xml version="1.0" encoding="utf-8"?>
<!-- Generator: Adobe Illustrator 21.0.2, SVG Export Plug-In . SVG Version: 6.00 Build 0)  -->
<svg version="1.1" id="Ñëîé_5" xmlns="http://www.w3.org/2000/svg" xmlns:xlink="http://www.w3.org/1999/xlink" x="0px" y="0px"
	 width="300.3px" height="91.7px" viewBox="0 0 300.3 91.7" style="enable-background:new 0 0 300.3 91.7;" xml:space="preserve">
<style type="text/css">
	.st0{opacity:0.12;fill:none;stroke:#FFFFFF;stroke-width:0.25;stroke-miterlimit:10;enable-background:new    ;}
	.st1{opacity:0.1;fill:#FFFFFF;enable-background:new    ;}
	.st2{opacity:0.2;fill:#FFFFFF;enable-background:new    ;}
	.st3{opacity:0.4;}
	.st4{fill:#FFFFFF;}
	.st5{opacity:0.1;fill:url(#SVGID_1_);enable-background:new    ;}
</style>
<g>
	<path class="st0" d="M300.1,0.2C282.7,9,279,32.4,253.8,31c-25-4.2-25-16.7-54.8-16.7c-34.4,0-41.2,36.3-72.8,36.3
		c-25.2,0-23.2-12.8-50.5-10.8C40,42.5,41.1,81.3,0.1,81.3v10.3h300V0.2z"/>
	<path class="st1" d="M300.1,22.6c-26.4,7.7-31.1,34.6-63.5,34.6c-31.5,0-31.5-17.2-63.1-17.2c-44.1,0-39.5,40.9-67.9,40.9
		c-15.8,0-20.1-8.8-42.1-8.8S34.8,91.6,0.1,91.6h300V22.6z"/>
	<g>
		<circle class="st2" cx="278.4" cy="21" r="0.5"/>
		<g class="st3">
			<path class="st4" d="M278.4,20.5c0.3,0,0.5,0.2,0.5,0.5s-0.2,0.5-0.5,0.5s-0.5-0.2-0.5-0.5S278.1,20.5,278.4,20.5 M278.4,20
				c-0.6,0-1,0.4-1,1s0.4,1,1,1s1-0.4,1-1S278.9,20,278.4,20L278.4,20z"/>
		</g>
	</g>
	<g>
		<circle class="st2" cx="230.3" cy="22.3" r="0.5"/>
		<g class="st3">
			<path class="st4" d="M230.3,21.8c0.3,0,0.5,0.2,0.5,0.5s-0.2,0.5-0.5,0.5s-0.5-0.2-0.5-0.5C229.8,22,230,21.8,230.3,21.8
				 M230.3,21.3c-0.6,0-1,0.4-1,1s0.4,1,1,1s1-0.4,1-1S230.9,21.3,230.3,21.3L230.3,21.3z"/>
		</g>
	</g>
	<g>
		<circle class="st2" cx="104.2" cy="45.7" r="0.5"/>
		<g class="st3">
			<path class="st4" d="M104.2,45.2c0.3,0,0.5,0.2,0.5,0.5s-0.2,0.5-0.5,0.5s-0.5-0.2-0.5-0.5S103.9,45.2,104.2,45.2 M104.2,44.7
				c-0.6,0-1,0.4-1,1s0.4,1,1,1s1-0.4,1-1S104.7,44.7,104.2,44.7L104.2,44.7z"/>
		</g>
	</g>
	<g>
		<circle class="st2" cx="38.7" cy="62.9" r="0.5"/>
		<g class="st3">
			<path class="st4" d="M38.7,62.4c0.3,0,0.5,0.2,0.5,0.5s-0.2,0.5-0.5,0.5s-0.5-0.2-0.5-0.5S38.4,62.4,38.7,62.4 M38.7,61.9
				c-0.6,0-1,0.4-1,1s0.4,1,1,1s1-0.4,1-1C39.7,62.3,39.3,61.9,38.7,61.9L38.7,61.9z"/>
		</g>
	</g>
	
		<linearGradient id="SVGID_1_" gradientUnits="userSpaceOnUse" x1="170.6093" y1="-122.0245" x2="138.9426" y2="-45.6911" gradientTransform="matrix(1 0 0 -1 0 -10.5934)">
		<stop  offset="0" style="stop-color:#FFFFFF"/>
		<stop  offset="1" style="stop-color:#FFFFFF"/>
	</linearGradient>
	<path class="st5" d="M252.4,14.1c-31.6-0.1-31.6,36.6-66.3,36.6c-25.2,0-25.2-19.4-53.6-19.4c-31.5,0-30,33.7-60.7,35.8
		C56,68.2,57.4,63,38.5,62.9C21.7,62.7,16.9,80.2,0.1,80v11.6h300V32.5C282.1,26.5,276.3,14.1,252.4,14.1z"/>
</g>
</svg>
